<svg width="1741" height="1740" viewBox="0 0 1741 1740" fill="none" xmlns="http://www.w3.org/2000/svg">
<path d="M1477.79 1356.8C1515.33 1297.92 1536.67 1227.09 1536.67 1152C1536.67 938.667 1366 768 1152.67 768C939.333 768 768.667 938.667 768.667 1152C768.667 1365.33 939.333 1536 1152.67 1536C1226.91 1536 1296.88 1514.67 1355.76 1477.97L1622 1739.95L1740.61 1621.33L1477.79 1356.8M1152.67 1365.33C1096.09 1365.33 1041.83 1342.86 1001.82 1302.85C961.809 1262.84 939.333 1208.58 939.333 1152C939.333 1095.42 961.809 1041.16 1001.82 1001.15C1041.83 961.143 1096.09 938.667 1152.67 938.667C1209.25 938.667 1263.51 961.143 1303.52 1001.15C1343.52 1041.16 1366 1095.42 1366 1152C1366 1208.58 1343.52 1262.84 1303.52 1302.85C1263.51 1342.86 1209.25 1365.33 1152.67 1365.33M256.667 1450.67V768H0.666748L854 0L1707.33 768H1552.03C1478.52 691.049 1384.25 637.096 1280.67 612.693L854 229.547L427.333 613.547V1280H613.36C627.867 1341.44 652.613 1398.61 685.893 1450.67H256.667Z" fill="black"/>
</svg>
